<svg width="18" height="22" viewBox="0 0 18 22" fill="none" xmlns="http://www.w3.org/2000/svg">
<path d="M14.7892 11.8711C14.7653 9.28551 16.9605 8.02763 17.0609 7.96906C15.8177 6.20176 13.8907 5.96029 13.2135 5.94104C11.5951 5.77498 10.0252 6.88526 9.20077 6.88526C8.35988 6.88526 7.0903 5.95709 5.722 5.98436C3.96121 6.01083 2.31398 7.00479 1.41055 8.54827C-0.4539 11.6954 0.936623 16.3202 2.72291 18.8641C3.61646 20.1099 4.66059 21.501 6.02725 21.4521C7.36429 21.3983 7.86373 20.6209 9.47723 20.6209C11.0759 20.6209 11.5449 21.4521 12.9387 21.4208C14.3737 21.3983 15.2771 20.1693 16.1394 18.9122C17.172 17.4842 17.5867 16.078 17.6031 16.0058C17.5694 15.9945 14.8163 14.9701 14.7892 11.8711Z" fill="#111111"/>
<path d="M12.1562 4.2676C12.8754 3.39077 13.3674 2.19786 13.2308 0.987305C12.19 1.03223 10.8883 1.68925 10.1388 2.54683C9.47558 3.30252 8.88317 4.54116 9.03621 5.70599C10.2054 5.79103 11.4059 5.13079 12.1562 4.2676Z" fill="#111111"/>
</svg>
