<svg width="21" height="22" viewBox="0 0 21 22" fill="none" xmlns="http://www.w3.org/2000/svg">
<path d="M1.046 1.04776C0.804303 1.29444 0.664429 1.67851 0.664429 2.17589V19.9171C0.664429 20.4145 0.804303 20.7985 1.046 21.0452L1.10565 21.0994L11.3021 11.1618V10.9272L1.10565 0.989598L1.046 1.04776Z" fill="#111111"/>
<path d="M15.9314 14.4761L12.5364 11.1619V10.9272L15.9355 7.61304L16.0117 7.65616L20.0372 9.88935C21.186 10.5231 21.186 11.566 20.0372 12.2038L16.0117 14.433L15.9314 14.4761Z" fill="#111111"/>
<path d="M15.3945 15.0499L11.9192 11.6616L1.66309 21.6623C2.04466 22.0534 2.66689 22.1005 3.3745 21.7094L15.3945 15.0499Z" fill="#111111"/>
<path d="M15.3945 7.03885L3.3745 0.379385C2.66689 -0.00768857 2.04466 0.0394409 1.66309 0.430525L11.9192 10.4272L15.3945 7.03885Z" fill="#111111"/>
</svg>
